<svg xmlns="http://www.w3.org/2000/svg" xmlns:xlink="http://www.w3.org/1999/xlink" width="600" zoomAndPan="magnify" viewBox="0 0 450 149.999998" height="200" preserveAspectRatio="xMidYMid meet" version="1.0"><defs><g/></defs><g fill="#ffffff" fill-opacity="1"><g transform="translate(111.769054, 62.957761)"><g><path d="M 23.800781 -19.535156 C 22.304688 -19.535156 21.996094 -19.488281 21.644531 -19.3125 C 21.207031 -19.050781 20.941406 -18.476562 20.941406 -17.863281 C 20.941406 -16.9375 21.207031 -16.675781 22.570312 -16.101562 C 23.667969 -15.664062 24.109375 -14.957031 24.109375 -13.636719 C 24.109375 -11.527344 22.703125 -10.339844 20.238281 -10.339844 C 16.675781 -10.339844 14.648438 -12.714844 14.648438 -16.9375 C 14.648438 -21.734375 17.246094 -24.285156 22.171875 -24.285156 C 24.152344 -24.285156 28.375 -23.625 30.402344 -22.964844 C 33.875 -21.910156 33.875 -21.910156 34.359375 -21.910156 C 35.152344 -21.910156 35.945312 -22.703125 35.945312 -23.492188 C 35.945312 -23.800781 35.8125 -24.242188 35.59375 -24.769531 C 34.625 -27.1875 33.875 -30.136719 33.699219 -32.203125 C 33.613281 -34.402344 33.128906 -35.019531 31.367188 -35.019531 C 30.839844 -35.019531 30.445312 -34.886719 30.09375 -34.535156 C 29.476562 -34.007812 29.433594 -33.964844 29.167969 -33.964844 C 28.90625 -33.964844 28.597656 -34.007812 28.246094 -34.097656 C 25.867188 -34.757812 22.4375 -35.238281 20.0625 -35.238281 C 7.832031 -35.238281 0.96875 -28.859375 0.96875 -17.511719 C 0.96875 -5.542969 7.917969 0.96875 20.675781 0.96875 C 25.648438 0.96875 29.828125 0.0898438 33.613281 -1.714844 C 35.460938 -2.550781 36.164062 -3.300781 36.164062 -4.398438 C 36.164062 -4.796875 36.121094 -5.324219 36.03125 -5.9375 C 35.769531 -7.609375 35.679688 -9.8125 35.679688 -13.285156 C 35.679688 -14.648438 35.722656 -15.664062 35.769531 -16.410156 C 35.8125 -16.980469 35.855469 -17.511719 35.855469 -17.816406 C 35.855469 -19.136719 35.285156 -19.535156 33.390625 -19.535156 Z M 23.800781 -19.535156 "/></g></g></g><g fill="#ffffff" fill-opacity="1"><g transform="translate(149.118401, 62.957761)"><g><path d="M 20.414062 -6.554688 C 22.613281 -6.554688 23.40625 -6.070312 23.40625 -4.621094 C 23.40625 -4.003906 23.316406 -3.785156 22.746094 -3.035156 C 22.394531 -2.550781 22.261719 -2.15625 22.261719 -1.714844 C 22.261719 -0.527344 23.054688 0.265625 24.152344 0.265625 C 24.503906 0.265625 25.078125 0.21875 25.738281 0.175781 C 26.792969 0.0898438 28.859375 0 30.355469 0 C 31.808594 0 34.492188 0.0898438 35.679688 0.175781 C 36.515625 0.21875 37.265625 0.265625 37.660156 0.265625 C 38.714844 0.265625 39.332031 -0.394531 39.332031 -1.539062 C 39.332031 -2.113281 39.199219 -2.417969 38.671875 -3.167969 C 37.703125 -4.574219 37.617188 -4.839844 36.910156 -8.140625 C 35.898438 -12.847656 32.863281 -22.703125 30.882812 -27.71875 C 28.683594 -33.390625 27.894531 -34.578125 26.441406 -34.578125 C 26.089844 -34.578125 25.5625 -34.535156 24.945312 -34.492188 C 23.84375 -34.359375 22.085938 -34.273438 20.195312 -34.273438 C 17.773438 -34.273438 15.265625 -34.359375 14.34375 -34.492188 C 13.859375 -34.535156 13.332031 -34.578125 13.109375 -34.578125 C 11.746094 -34.578125 11.042969 -33.65625 9.28125 -29.695312 C 6.90625 -24.460938 3.871094 -15.179688 2.332031 -8.578125 C 1.804688 -6.292969 1.539062 -5.234375 1.453125 -5.058594 C 1.144531 -4.179688 1.144531 -4.136719 0.308594 -3.210938 C -0.175781 -2.597656 -0.394531 -2.15625 -0.394531 -1.582031 C -0.394531 -0.484375 0.308594 0.265625 1.40625 0.265625 C 1.714844 0.265625 2.289062 0.21875 2.949219 0.175781 C 3.914062 0.0898438 6.203125 0 7.609375 0 C 8.886719 0 10.117188 0.0429688 11.085938 0.175781 C 11.613281 0.21875 12.097656 0.265625 12.40625 0.265625 C 13.242188 0.265625 13.902344 -0.527344 13.902344 -1.582031 C 13.902344 -2.289062 13.8125 -2.550781 13.285156 -3.253906 C 12.933594 -3.785156 12.800781 -4.136719 12.800781 -4.621094 C 12.800781 -5.9375 13.59375 -6.554688 15.398438 -6.554688 Z M 17.070312 -15.53125 C 15.617188 -15.53125 15.089844 -15.839844 15.089844 -16.761719 C 15.089844 -17.730469 15.792969 -20.148438 16.804688 -22.65625 C 17.511719 -24.375 17.816406 -24.8125 18.347656 -24.8125 C 18.828125 -24.8125 18.960938 -24.636719 19.886719 -22.128906 C 20.589844 -20.238281 21.207031 -17.730469 21.207031 -16.804688 C 21.207031 -15.925781 20.632812 -15.53125 19.445312 -15.53125 Z M 17.070312 -15.53125 "/></g></g></g><g fill="#ffffff" fill-opacity="1"><g transform="translate(187.96348, 62.957761)"><g><path d="M 2.726562 -7.347656 C 2.726562 -4.839844 2.640625 -4.136719 2.15625 -3.386719 C 1.40625 -2.199219 1.40625 -2.15625 1.40625 -1.496094 C 1.40625 -0.441406 2.113281 0.308594 3.125 0.308594 C 3.476562 0.308594 4.179688 0.265625 4.925781 0.175781 C 5.984375 0.0898438 7.699219 0 8.492188 0 C 8.976562 0 9.679688 0.0429688 10.648438 0.0898438 C 15.882812 0.394531 17.640625 0.484375 19.003906 0.484375 C 22.878906 0.484375 26.441406 0.0429688 28.421875 -0.703125 C 32.46875 -2.199219 35.019531 -5.808594 35.019531 -9.988281 C 35.019531 -12.890625 33.566406 -15.484375 31.367188 -16.585938 C 29.960938 -17.289062 29.960938 -17.289062 29.960938 -17.554688 C 29.960938 -17.730469 30.046875 -17.816406 30.355469 -17.949219 C 32.730469 -18.875 34.273438 -21.46875 34.273438 -24.417969 C 34.273438 -27.761719 32.511719 -30.839844 29.742188 -32.511719 C 27.234375 -33.964844 24.417969 -34.578125 20.371094 -34.578125 C 19.488281 -34.578125 17.992188 -34.535156 16.144531 -34.492188 C 10.03125 -34.273438 10.03125 -34.273438 9.195312 -34.273438 C 7.789062 -34.273438 7.214844 -34.316406 5.28125 -34.492188 C 4.53125 -34.535156 3.828125 -34.578125 3.300781 -34.578125 C 2.113281 -34.578125 1.40625 -33.921875 1.40625 -32.777344 C 1.40625 -32.074219 1.40625 -32.027344 2.15625 -30.839844 C 2.640625 -30.09375 2.726562 -29.386719 2.726562 -26.882812 Z M 15.707031 -24.550781 C 15.707031 -25.957031 16.101562 -26.222656 18.039062 -26.222656 C 20.632812 -26.222656 21.910156 -25.296875 21.910156 -23.363281 C 21.910156 -21.425781 20.589844 -20.371094 18.214844 -20.371094 C 15.882812 -20.371094 15.707031 -20.5 15.707031 -22.042969 Z M 15.707031 -13.109375 C 15.707031 -14.519531 16.058594 -14.828125 17.816406 -14.828125 C 20.808594 -14.828125 22.21875 -13.859375 22.21875 -11.746094 C 22.21875 -9.765625 20.898438 -8.667969 18.523438 -8.667969 C 16.015625 -8.667969 15.707031 -8.84375 15.707031 -10.292969 Z M 15.707031 -13.109375 "/></g></g></g><g fill="#ffffff" fill-opacity="1"><g transform="translate(223.993061, 62.957761)"><g><path d="M 2.773438 -7.347656 C 2.773438 -4.839844 2.683594 -4.136719 2.199219 -3.386719 C 1.496094 -2.242188 1.453125 -2.15625 1.453125 -1.539062 C 1.453125 -0.441406 2.15625 0.265625 3.253906 0.265625 C 3.609375 0.265625 4.222656 0.21875 4.925781 0.175781 C 5.984375 0.0898438 8.183594 0 9.328125 0 C 10.734375 0 13.066406 0.0898438 13.992188 0.21875 C 14.648438 0.265625 15.222656 0.308594 15.484375 0.308594 C 16.5 0.308594 17.203125 -0.441406 17.203125 -1.496094 C 17.203125 -2.15625 17.203125 -2.199219 16.453125 -3.386719 C 16.015625 -4.089844 15.925781 -4.445312 15.925781 -5.761719 L 15.882812 -7.347656 L 15.882812 -9.765625 C 15.882812 -10.382812 16.101562 -10.691406 16.542969 -10.691406 C 17.464844 -10.691406 18.699219 -9.457031 20.148438 -7.171875 C 21.160156 -5.542969 21.777344 -4.089844 21.777344 -3.34375 C 21.777344 -3.253906 21.777344 -3.125 21.734375 -2.992188 C 21.644531 -2.023438 21.601562 -1.714844 21.601562 -1.363281 C 21.601562 -0.394531 22.261719 0.265625 23.183594 0.265625 C 23.492188 0.265625 23.933594 0.21875 24.460938 0.175781 C 25.472656 0.0898438 26.925781 0 28.15625 0 C 29.386719 0 31.058594 0.0898438 32.601562 0.21875 C 33.523438 0.265625 34.273438 0.308594 34.757812 0.308594 C 36.339844 0.308594 37.132812 -0.265625 37.132812 -1.496094 C 37.132812 -2.066406 37.042969 -2.332031 36.648438 -2.902344 C 35.945312 -3.871094 35.855469 -4.089844 35.371094 -5.367188 C 34.226562 -8.578125 32.953125 -10.691406 30.929688 -12.847656 C 30.707031 -13.066406 30.578125 -13.242188 30.578125 -13.375 C 30.578125 -13.550781 30.796875 -13.769531 31.675781 -14.472656 C 33.964844 -16.277344 35.195312 -19.09375 35.195312 -22.480469 C 35.195312 -27.320312 32.601562 -31.324219 28.199219 -33.171875 C 26 -34.097656 22.261719 -34.578125 17.511719 -34.578125 C 16.71875 -34.578125 15.617188 -34.535156 14.253906 -34.449219 C 11.527344 -34.316406 10.777344 -34.273438 9.371094 -34.273438 C 7.699219 -34.273438 7.390625 -34.273438 5.324219 -34.492188 C 4.621094 -34.535156 3.960938 -34.578125 3.386719 -34.578125 C 2.15625 -34.578125 1.453125 -33.921875 1.453125 -32.730469 C 1.453125 -32.074219 1.453125 -32.027344 2.199219 -30.839844 C 2.683594 -30.09375 2.773438 -29.386719 2.773438 -26.882812 Z M 15.882812 -23.40625 C 15.882812 -24.726562 16.234375 -24.988281 18.125 -24.988281 C 20.765625 -24.988281 22.21875 -23.714844 22.21875 -21.382812 C 22.21875 -19.050781 20.722656 -17.90625 17.6875 -17.90625 C 16.367188 -17.90625 15.882812 -18.347656 15.882812 -19.621094 Z M 15.882812 -23.40625 "/></g></g></g><g fill="#ffffff" fill-opacity="1"><g transform="translate(260.902487, 62.957761)"><g><path d="M 2.726562 -7.347656 C 2.726562 -4.839844 2.640625 -4.136719 2.15625 -3.386719 C 1.453125 -2.242188 1.40625 -2.15625 1.40625 -1.539062 C 1.40625 -0.441406 2.113281 0.265625 3.210938 0.265625 C 3.609375 0.265625 4.222656 0.21875 4.925781 0.175781 C 6.292969 0.0429688 7.789062 0 9.8125 0 C 11.964844 0 13.507812 0.0429688 14.738281 0.21875 C 15.355469 0.265625 15.925781 0.308594 16.234375 0.308594 C 17.246094 0.308594 17.949219 -0.394531 17.949219 -1.496094 C 17.949219 -2.113281 17.90625 -2.242188 17.203125 -3.386719 C 16.71875 -4.179688 16.628906 -4.75 16.628906 -7.347656 L 16.628906 -26.882812 C 16.628906 -29.476562 16.71875 -30.09375 17.203125 -30.839844 C 17.90625 -31.984375 17.949219 -32.117188 17.949219 -32.730469 C 17.949219 -33.875 17.246094 -34.578125 16.191406 -34.578125 C 15.75 -34.578125 15.089844 -34.535156 14.429688 -34.492188 C 12.847656 -34.316406 11.878906 -34.273438 9.546875 -34.273438 C 7.609375 -34.273438 7.082031 -34.316406 5.28125 -34.492188 C 4.53125 -34.535156 3.828125 -34.578125 3.34375 -34.578125 C 2.113281 -34.578125 1.40625 -33.921875 1.40625 -32.730469 C 1.40625 -32.074219 1.40625 -32.027344 2.15625 -30.839844 C 2.640625 -30.09375 2.726562 -29.386719 2.726562 -26.882812 Z M 2.726562 -7.347656 "/></g></g></g><g fill="#ffffff" fill-opacity="1"><g transform="translate(280.303025, 62.957761)"><g><path d="M 2.726562 -7.347656 C 2.726562 -4.839844 2.640625 -4.136719 2.15625 -3.386719 C 1.40625 -2.199219 1.40625 -2.15625 1.40625 -1.496094 C 1.40625 -0.441406 2.113281 0.265625 3.167969 0.265625 C 3.5625 0.265625 4.222656 0.21875 4.925781 0.175781 C 6.160156 0.0898438 7.875 0 9.195312 0 C 14.253906 0 23.449219 0.132812 25.867188 0.21875 C 26.75 0.265625 27.585938 0.265625 28.070312 0.265625 C 29.652344 0.265625 29.917969 -0.0429688 30.355469 -2.550781 C 30.664062 -4.488281 31.414062 -7.480469 31.71875 -8.226562 C 31.984375 -8.886719 32.117188 -9.457031 32.117188 -9.8125 C 32.117188 -10.558594 31.457031 -11.175781 30.664062 -11.175781 C 30.179688 -11.175781 30.136719 -11.175781 28.859375 -10.648438 C 27.011719 -9.941406 24.328125 -9.503906 21.734375 -9.503906 C 16.058594 -9.503906 15.707031 -9.589844 15.707031 -10.953125 L 15.707031 -12.496094 C 15.707031 -13.8125 16.058594 -14.078125 17.863281 -14.078125 L 21.601562 -14.078125 C 23.097656 -14.078125 24.195312 -13.945312 24.8125 -13.726562 C 26.441406 -13.109375 26.441406 -13.109375 26.96875 -13.109375 C 27.894531 -13.109375 28.554688 -13.8125 28.554688 -14.738281 C 28.554688 -14.957031 28.507812 -15.484375 28.464844 -16.234375 C 28.421875 -16.453125 28.421875 -16.851562 28.421875 -17.246094 C 28.421875 -18.257812 28.464844 -19.09375 28.507812 -19.839844 C 28.554688 -20.324219 28.554688 -20.722656 28.554688 -20.984375 C 28.554688 -22.042969 28.023438 -22.65625 27.058594 -22.65625 C 26.660156 -22.65625 26.308594 -22.613281 26.089844 -22.527344 C 23.976562 -21.734375 23.800781 -21.691406 21.601562 -21.691406 L 18.257812 -21.691406 C 16.851562 -21.691406 16.585938 -21.734375 16.277344 -21.867188 C 15.925781 -21.996094 15.707031 -22.480469 15.707031 -22.964844 L 15.707031 -24.417969 C 15.707031 -25.5625 16.058594 -25.914062 17.289062 -25.914062 C 22.394531 -25.914062 25.648438 -25.691406 27.1875 -25.296875 C 29.167969 -24.726562 29.167969 -24.726562 29.742188 -24.726562 C 30.621094 -24.726562 31.28125 -25.253906 31.28125 -25.957031 C 31.28125 -26.175781 31.238281 -26.484375 31.105469 -26.792969 C 30.402344 -29.082031 30.269531 -29.519531 29.742188 -32.511719 C 29.433594 -34.050781 28.90625 -34.578125 27.671875 -34.578125 C 27.277344 -34.578125 26.703125 -34.535156 26.046875 -34.492188 C 24.328125 -34.359375 19.09375 -34.273438 13.550781 -34.273438 C 9.988281 -34.273438 6.644531 -34.359375 5.28125 -34.492188 C 4.53125 -34.535156 3.738281 -34.578125 3.253906 -34.578125 C 2.113281 -34.578125 1.40625 -33.875 1.40625 -32.777344 C 1.40625 -32.117188 1.453125 -32.027344 2.15625 -30.839844 C 2.640625 -30.09375 2.726562 -29.386719 2.726562 -26.882812 Z M 2.726562 -7.347656 "/></g></g></g><g fill="#ffffff" fill-opacity="1"><g transform="translate(312.945212, 62.957761)"><g><path d="M 16.628906 -26.882812 L 16.675781 -28.070312 L 16.675781 -29.210938 C 16.71875 -29.871094 16.851562 -30.3125 17.203125 -30.839844 C 17.949219 -32.074219 17.949219 -32.074219 17.949219 -32.777344 C 17.949219 -33.832031 17.246094 -34.578125 16.191406 -34.578125 C 15.75 -34.578125 15.132812 -34.535156 14.429688 -34.492188 C 13.023438 -34.316406 11.570312 -34.273438 9.589844 -34.273438 C 7.832031 -34.273438 7.039062 -34.316406 5.28125 -34.492188 C 4.53125 -34.535156 3.785156 -34.578125 3.300781 -34.578125 C 2.113281 -34.578125 1.40625 -33.921875 1.40625 -32.730469 C 1.40625 -32.074219 1.40625 -32.027344 2.15625 -30.839844 C 2.640625 -30.09375 2.726562 -29.386719 2.726562 -26.882812 L 2.726562 -7.347656 C 2.726562 -4.839844 2.640625 -4.136719 2.15625 -3.386719 C 1.453125 -2.242188 1.40625 -2.15625 1.40625 -1.539062 C 1.40625 -0.441406 2.113281 0.265625 3.210938 0.265625 C 3.609375 0.265625 4.222656 0.21875 4.925781 0.175781 C 6.070312 0.0898438 8.140625 0 9.546875 0 C 14.914062 0 17.992188 0.0429688 19.488281 0.21875 C 20.195312 0.265625 20.941406 0.308594 21.25 0.308594 C 22.480469 0.308594 22.964844 -0.175781 23.183594 -1.582031 C 23.625 -4.265625 24.242188 -6.730469 24.945312 -8.976562 C 25.164062 -9.503906 25.253906 -9.988281 25.253906 -10.382812 C 25.253906 -11.21875 24.503906 -11.878906 23.539062 -11.878906 C 22.964844 -11.878906 22.789062 -11.835938 21.996094 -11.351562 C 21.117188 -10.777344 20.324219 -10.601562 18.828125 -10.601562 C 16.71875 -10.601562 16.628906 -10.734375 16.628906 -13.417969 Z M 16.628906 -26.882812 "/></g></g></g><path stroke-linecap="butt" transform="matrix(0.74862, -0.0454763, 0.0454763, 0.74862, 105.01715, 46.961538)" fill="none" stroke-linejoin="miter" d="M 51.81269 27.905753 L 54.747894 27.259624 C 55.494157 27.257995 56.10003 27.420031 56.555116 27.745098 C 57.010517 28.064967 57.237488 28.365741 57.236031 28.647421 C 57.234574 28.929101 57.168035 29.337275 57.036415 29.871945 C 56.899596 30.406299 55.81515 35.631407 53.783395 45.542072 C 51.74644 55.452421 50.259021 62.844582 49.32082 67.723755 C 53.876305 61.535466 59.192117 53.911471 65.273141 44.857285 C 71.354164 35.803099 74.90216 29.793634 75.922959 26.818806 C 76.240689 25.883225 76.655277 25.157028 77.16609 24.650611 C 77.677219 24.138995 78.128611 23.837686 78.53098 23.742116 C 78.933033 23.651745 79.551538 23.60583 80.381297 23.604056 C 81.211057 23.602282 82.196438 23.787372 83.332876 24.148611 C 84.474512 24.510166 85.043775 25.103066 85.04035 25.932509 C 85.043437 27.513731 82.700505 32.067546 78.011555 39.593954 C 73.322289 47.125561 67.973656 55.118036 61.959827 63.581459 C 55.945683 72.050081 50.915776 78.746998 46.870109 83.672209 C 46.148455 84.557163 45.271057 84.999568 44.237915 84.999423 C 43.204773 84.999278 42.119983 84.818586 40.983546 84.457346 C 39.847108 84.096107 39.275173 83.461301 39.278451 82.548362 C 39.274927 79.600015 41.861973 65.444377 47.02951 40.075616 C 42.610991 45.813047 37.242195 53.793861 30.917293 64.028139 C 24.326258 74.606288 20.603789 81.168692 19.749884 83.715351 C 19.265867 85.240893 18.716404 86.125871 18.10181 86.365087 C 17.672962 86.552971 17.218606 86.645383 16.733227 86.647205 L 13.559707 87.007525 C 12.944043 87.006651 12.375193 86.836429 11.853787 86.486461 C 11.332382 86.136493 11.067294 85.776006 11.069237 85.400433 C 11.071593 84.3309 12.54976 81.128177 15.508621 75.79778 C 18.467483 70.467383 21.923918 64.676727 25.878242 58.420612 C 29.827368 52.164181 33.959057 46.080596 38.273941 40.159459 C 42.583627 34.238007 45.919448 30.261083 48.27652 28.223171 C 48.756287 27.798355 49.306917 27.581343 49.92258 27.582217 Z M 98.898539 54.460709 C 100.933315 54.464303 101.950449 55.157461 101.954507 56.550896 C 101.95062 57.302042 101.776463 57.849782 101.431718 58.199313 C 101.081774 58.548528 100.338184 59.7087 99.201263 61.67463 C 98.058827 63.645443 96.799736 66.16227 95.423673 69.230311 C 94.042411 72.298036 93.152893 74.915583 92.749918 77.082636 C 92.670796 77.35438 92.632461 77.727742 92.629401 78.207606 C 92.628406 79.684221 93.032548 80.418411 93.835998 80.420256 C 94.639764 80.416903 95.591669 80.036422 96.686831 79.273298 C 97.787192 78.51049 98.765625 77.693314 99.622131 76.821769 C 100.478636 75.950225 101.315294 75.061821 102.13242 74.151359 C 102.949546 73.240897 103.440512 72.717621 103.599802 72.586413 C 103.759409 72.450007 104.003604 72.381354 104.321675 72.385022 C 104.833048 72.384778 105.138146 72.773785 105.247685 73.547476 C 105.351709 74.326049 105.407366 75.127774 105.40914 75.957533 C 105.405399 76.792176 105.328755 77.36671 105.168493 77.685705 C 104.392082 79.214357 102.6841 81.046456 100.043915 83.192399 C 97.404045 85.333145 95.006305 86.408486 92.851326 86.408026 C 90.696347 86.407566 89.108444 85.747569 88.092185 84.438749 C 87.071042 83.124413 86.564285 81.674351 86.562146 80.077533 C 86.564889 78.48623 86.832745 77.083223 87.365082 75.878911 C 85.144003 78.770389 82.589476 81.224177 79.712528 83.230508 C 76.830066 85.241721 74.483536 86.247123 72.662541 86.246079 C 70.836346 86.24472 69.351301 85.69533 68.202206 84.597594 C 66.725153 83.229473 65.989553 81.337639 65.990838 78.911378 C 65.991808 76.490315 66.531407 74.049794 67.619402 71.600842 C 68.702513 69.146375 70.127139 66.910936 71.898793 64.889641 C 73.665249 62.868031 75.608754 61.024149 77.723793 59.36288 C 82.172244 55.881415 86.26961 54.142284 90.016208 54.140289 C 91.466829 54.139705 92.641723 54.383268 93.5568 54.866726 C 94.466995 55.34467 95.040825 55.948284 95.283807 56.672683 C 95.926702 55.709893 96.469825 55.101081 96.907977 54.845929 C 97.351328 54.591092 98.016477 54.464524 98.898539 54.460709 Z M 93.555759 58.920998 C 88.974203 58.924451 84.233018 61.469777 79.332205 66.556976 C 77.588463 68.376467 75.989606 70.559579 74.530436 73.105996 C 73.071265 75.652412 72.339409 77.392488 72.33975 78.331737 C 72.340407 79.265787 72.60926 79.736079 73.141428 79.737099 C 73.89289 79.735786 75.98128 78.255526 79.411796 75.296633 C 82.837114 72.337424 85.114019 70.158976 86.242195 68.766488 C 87.474054 67.213324 89.911804 63.933227 93.555759 58.920998 Z M 106.167235 76.963685 L 106.128075 77.60833 C 106.129241 78.276297 106.381381 78.849932 106.889377 79.334752 C 107.397689 79.814372 107.868225 80.056891 108.296101 80.056794 C 111.510216 80.058978 114.357333 79.574471 116.83682 78.613672 C 119.311424 77.647359 120.554385 76.684496 120.550425 75.718938 C 120.551906 75.265067 120.101243 74.867218 119.208515 74.531219 C 118.310273 74.200103 116.796222 73.784617 114.666046 73.28996 C 112.536186 72.790105 110.989047 72.403916 110.025262 72.120998 C 109.061161 71.843279 108.299811 71.577876 107.735066 71.34007 C 107.170638 71.097066 106.595981 70.764735 106.00653 70.332365 C 104.745079 69.452174 104.115738 68.130331 104.117875 66.377235 C 104.120011 64.624139 104.768687 62.879011 106.06847 61.152563 C 107.368254 59.426116 108.992376 57.943742 110.950919 56.711272 C 112.904263 55.478487 115.005043 54.395542 117.258773 53.457555 C 121.701953 51.608983 125.441748 50.688218 128.468392 50.684231 C 131.442417 50.687484 133.276556 51.331132 133.970808 52.615174 C 134.188306 53.07191 134.293156 53.579201 134.29544 54.142877 L 134.293983 54.424557 C 134.296462 55.843986 133.994303 56.952704 133.392391 57.756227 C 132.78528 58.559435 131.838525 59.284612 130.536846 59.925614 C 129.24005 60.572131 128.208438 60.890373 127.44138 60.890738 C 126.67952 60.891419 126.197615 60.836055 125.99535 60.729845 C 125.798283 60.623951 125.629421 60.483245 125.493962 60.308042 C 125.358503 60.13284 125.193892 60.008046 124.990047 59.927829 C 124.791401 59.847929 124.68903 59.643429 124.692698 59.325358 C 124.691483 59.001772 124.826067 58.676 125.091567 58.342527 C 125.362582 58.00417 125.54585 57.650048 125.657283 57.275908 C 123.888736 57.35632 122.037593 57.765662 120.109368 58.499052 C 118.180827 59.23764 116.528912 60.060866 115.148111 60.973612 C 113.767625 61.881159 112.624241 62.75093 111.71276 63.58261 C 110.801279 64.414289 110.34685 65.023272 110.344275 65.409242 C 110.346583 65.800728 110.964093 66.11479 112.196488 66.356628 C 117.739037 67.455139 121.380737 68.406871 123.121906 69.206627 C 124.862759 70.011582 126.070011 70.925006 126.73878 71.941385 C 127.407549 72.957764 127.742821 73.880834 127.744279 74.715792 C 127.744669 76.427298 127.061666 78.050329 125.695903 79.574487 C 124.329823 81.103843 122.641931 82.347536 120.63191 83.310764 C 116.318505 85.428116 112.564984 86.488931 109.361267 86.487379 C 106.162748 86.486143 103.948761 85.99683 102.729702 85.020074 C 101.510643 84.043317 100.902704 82.884531 100.905885 81.543715 C 100.903868 80.202583 101.245114 78.965791 101.929939 77.828139 C 102.609565 76.690171 103.489344 76.12268 104.559193 76.119837 C 105.633925 76.122509 106.17015 76.400325 106.167235 76.963685 Z M 158.139231 76.08214 C 159.518453 75.195387 160.405957 74.586623 160.812455 74.251279 C 161.213755 73.915619 161.681229 73.521364 162.214878 73.068514 C 162.754041 72.61078 163.195813 72.381938 163.540194 72.381986 C 164.07756 72.383322 164.348284 72.994612 164.347484 74.210342 C 164.346367 75.431271 163.750213 76.741283 162.558388 78.150777 C 161.36688 79.555072 159.885528 80.748696 158.119849 81.726767 C 156.348971 82.704522 154.460587 83.555127 152.454696 84.27858 C 148.462446 85.747546 145.067688 86.485771 142.265538 86.487741 C 139.468902 86.484828 136.941629 85.569486 134.694747 83.731948 C 132.442351 81.899294 131.314706 79.503594 131.317327 76.539967 C 131.319633 73.581538 132.052606 70.620534 133.526327 67.662785 C 135.000365 64.699836 136.895768 62.10165 139.212538 59.868227 C 141.529624 57.629605 144.222696 55.815603 147.286872 54.420708 C 150.355931 53.031328 153.388186 52.333697 156.388521 52.33333 C 157.839142 52.332746 159.133898 52.750564 160.289017 53.577334 C 161.438622 54.408988 162.016631 55.545084 162.017215 56.995705 C 162.012917 58.440812 161.296973 60.176636 159.8645 62.197663 C 158.432027 64.21869 156.977326 65.231306 155.50591 65.230627 C 153.794404 65.231017 152.936245 64.41185 152.936316 62.778641 C 152.936219 62.350764 153.337421 61.587228 154.139922 60.488032 C 154.942108 59.394035 155.347561 58.646411 155.344937 58.260124 C 155.347828 57.868955 155.19772 57.677208 154.905642 57.675119 C 153.428712 57.679323 151.848049 58.188583 150.163655 59.2029 C 148.473747 60.222099 146.942473 61.292678 145.55912 62.419204 C 144.180967 63.546047 142.878414 64.802712 141.645947 66.194083 C 138.962471 69.224446 137.623577 72.367795 137.623118 75.639412 C 137.627031 76.949351 138.048762 78.081172 138.893511 79.035191 C 139.733377 79.983695 141.154944 80.461395 143.148446 80.457264 C 145.14683 80.458647 147.149029 80.225455 149.155041 79.757687 C 151.166253 79.290235 152.820013 78.780198 154.121522 78.22789 C 155.417517 77.680466 156.760324 76.963693 158.139231 76.08214 Z M 188.16752 40.879803 C 188.168566 42.408722 187.45974 43.941479 186.040725 45.483274 C 184.621711 47.025068 183.140262 47.790816 181.600946 47.79123 C 180.06163 47.791645 179.291219 46.988244 179.289711 45.381029 C 179.288204 43.773814 179.965838 42.239162 181.317099 40.781956 C 182.673874 39.319867 184.163509 38.591142 185.796718 38.591214 C 186.521871 38.593521 187.09954 38.790369 187.529093 39.192154 C 187.953447 39.593623 188.169512 40.159849 188.16752 40.879803 Z M 181.658592 75.961141 C 181.661945 76.764906 181.580102 77.339125 181.417945 77.689312 C 180.107474 80.364774 178.019303 82.528598 175.153749 84.175583 C 172.282995 85.822253 169.796123 86.646937 167.677536 86.648688 C 165.559264 86.64524 163.739312 85.939839 162.21343 84.516573 C 160.687231 83.098506 159.924471 81.653765 159.925466 80.17715 C 159.920946 78.705418 160.661524 76.564091 162.131917 73.747023 C 163.607194 70.935471 165.07992 68.337698 166.550095 65.953706 C 168.025469 63.570029 168.761358 62.278941 168.763277 62.075558 C 168.76488 61.877374 168.486407 61.479548 167.937623 60.893111 C 167.389154 60.301474 167.112891 59.867257 167.114348 59.585577 C 167.115806 59.303897 167.672023 58.565431 168.782684 57.375378 C 169.893345 56.185325 171.248663 55.004917 172.843123 53.839035 C 174.432385 52.672838 175.652293 52.089484 176.497332 52.093856 C 177.342688 52.093029 178.097406 52.467606 178.766685 53.217901 C 179.435963 53.968197 179.770166 54.651176 179.774491 55.267155 C 179.773617 55.882818 176.582949 61.679184 170.207056 72.666965 C 170.129682 72.82402 169.909708 73.181131 169.547763 73.727899 C 169.185503 74.279865 168.902342 74.732278 168.702846 75.095851 C 168.50335 75.459423 168.268241 75.893883 167.997518 76.399231 C 167.462679 77.472944 167.194264 78.369777 167.197155 79.095245 C 167.194192 80.002986 167.813573 80.458046 169.044899 80.459794 C 170.276225 80.461542 171.554243 80.038256 172.878636 79.195134 C 174.208227 78.352329 175.350202 77.419857 176.314643 76.403549 C 178.832341 73.697063 180.26598 72.344002 180.61556 72.344367 C 181.314719 72.345095 181.65893 73.550476 181.658592 75.961141 Z M 178.68421 85.240571 L 176.716557 85.162786 L 175.991404 85.160478 C 175.724859 85.081671 175.437372 84.918105 175.128314 84.680178 C 174.819571 84.437051 174.58502 84.261047 174.424345 84.157364 C 174.263985 84.048482 174.186975 83.855958 174.183234 83.573962 C 174.184691 83.292282 174.292674 82.803138 174.507183 82.10653 C 179.729172 70.615564 184.780065 61.42575 189.654349 54.54197 C 190.190403 53.791844 191.054585 53.223406 192.246896 52.836657 C 193.439523 52.444709 194.599038 52.254249 195.720875 52.254564 C 196.39404 52.253713 196.727635 52.7749 196.726859 53.81844 C 196.724454 54.115716 196.616957 54.510967 196.404367 55.004192 C 196.191462 55.502616 195.657133 56.310245 194.79555 57.43716 C 193.939482 58.559191 192.921913 59.848822 191.743474 61.295654 C 190.565036 62.742487 189.89396 63.567898 189.734816 63.782602 C 193.40428 59.982483 196.717727 57.146927 199.679725 55.286647 C 202.641723 53.426367 204.780449 52.491829 206.110868 52.494379 C 207.436403 52.491414 208.451374 52.876582 209.161611 53.639802 C 209.871849 54.403021 210.229348 55.217864 210.228596 56.089213 C 210.227844 56.960563 210.16835 57.682242 210.044601 58.259133 C 209.92605 58.83634 209.706829 59.438739 209.381738 60.066015 C 209.061529 60.698805 208.788911 61.235345 208.558684 61.67532 C 208.333657 62.11561 207.949023 62.692307 207.415495 63.400844 C 206.876454 64.114263 206.512784 64.603529 206.308892 64.867694 C 206.109882 65.137373 205.692962 65.644276 205.063015 66.393917 C 204.432752 67.148756 204.094615 67.561304 204.037575 67.641326 C 204.787409 66.89375 205.836146 65.778204 207.172758 64.304455 C 208.514253 62.83622 209.643352 61.600326 210.569822 60.607801 C 211.490778 59.620159 212.64932 58.500848 214.045135 57.255066 C 215.435751 56.008969 216.739057 54.997592 217.939458 54.21999 C 220.836229 52.402708 223.766744 51.49018 226.741084 51.488234 C 227.75863 51.487431 228.615598 51.810822 229.312304 52.453207 C 230.00901 53.095592 230.358638 53.868214 230.356307 54.765557 C 230.359174 55.663216 229.274216 57.804494 227.101118 61.194591 C 224.933533 64.579804 222.7702 67.98093 220.616317 71.398284 C 218.457236 74.815321 217.377161 76.962114 217.38066 77.849376 C 217.378911 79.080702 217.605981 79.809353 218.061868 80.035328 C 218.517439 80.266502 219.065348 80.351965 219.710479 80.297232 C 220.350095 80.247382 221.257422 79.827667 222.421115 79.053052 C 223.584809 78.278438 224.625311 77.47025 225.536476 76.643769 C 227.011074 75.303633 228.373655 74.003653 229.634618 72.744461 C 229.904832 72.505197 230.19929 72.3822 230.517677 72.380669 C 231.028733 72.385625 231.334148 72.769433 231.443371 73.548322 C 231.547395 74.326896 231.603051 75.128621 231.604826 75.95838 C 231.601401 76.787823 231.52444 77.367557 231.364178 77.686551 C 230.584148 79.188893 228.870968 81.020677 226.218805 83.191983 C 223.566643 85.363289 221.022391 86.445384 218.585416 86.448665 C 218.28814 86.44626 218.074991 86.433312 217.941087 86.404306 C 215.181352 86.13752 213.275864 85.379962 212.213909 84.136198 C 211.157153 82.892751 210.631495 81.410233 210.631105 79.698727 C 210.631031 77.982022 211.211224 75.904004 212.376568 73.470186 C 213.542228 71.03117 214.819394 68.818081 216.212948 66.836433 C 217.606503 64.854785 218.883767 63.069572 220.050253 61.475912 C 221.216739 59.882251 221.801647 59.01508 221.799144 58.884479 C 221.796958 58.74868 221.691574 58.679663 221.477478 58.682312 C 220.647718 58.684086 218.797547 60.022279 215.932164 62.697208 C 211.030792 67.278234 206.796462 71.701498 203.235006 75.956921 C 202.300325 77.084613 200.076259 79.939384 196.568321 84.516351 C 196.165103 85.055394 195.528135 85.31934 194.65647 85.323787 C 193.78512 85.323034 192.882287 85.153395 191.942455 84.819753 C 191.007821 84.486427 190.538573 84.050922 190.539909 83.513556 C 190.540419 83.247473 192.66804 79.489358 196.927657 72.244727 C 201.187589 64.994897 203.316498 61.043797 203.314384 60.391427 C 203.317785 59.734174 202.920201 59.407382 202.132348 59.406484 C 201.339296 59.40527 199.712695 60.584853 197.247664 62.939718 C 190.472411 69.421034 185.223088 75.864597 181.499695 82.270406 C 181.257978 82.64185 180.788901 83.234289 180.093095 84.037326 C 179.397289 84.840364 178.9243 85.239502 178.68421 85.240571 Z M 256.38822 54.943289 C 256.390334 56.712298 255.675046 58.265534 254.242039 59.608197 C 252.804148 60.945346 251.177304 61.613557 249.356309 61.612513 C 248.766639 61.613218 248.378482 61.474844 248.192153 61.192193 C 248.005824 60.909542 247.913242 60.54388 247.909525 60.089694 C 247.911322 59.630625 247.964159 59.19031 248.073552 58.763867 C 247.10984 59.081016 246.035982 59.579319 244.85781 60.248696 C 243.679638 60.918072 242.231398 61.910208 240.518606 63.220222 C 238.805498 64.535434 237.947875 65.511269 237.945422 66.152926 C 237.947754 66.372221 238.259825 66.474665 238.891084 66.476486 C 239.522343 66.478308 240.490768 66.255368 241.80644 65.813498 C 243.116914 65.371311 244.033035 65.150412 244.554805 65.150801 C 245.076575 65.151189 245.419376 65.177231 245.58321 65.228927 C 245.931818 65.417078 246.303553 65.825787 246.703614 66.455369 C 247.108874 67.085268 247.308249 67.582647 247.307253 67.942624 C 247.306258 68.302601 246.958816 68.782417 246.265561 69.371674 C 245.567107 69.960615 244.778088 70.408388 243.893305 70.714678 C 243.008206 71.026166 242.420237 71.256564 242.123253 71.421151 C 236.473453 74.579177 233.649101 76.750459 233.645312 77.929482 C 233.648958 80.016877 235.427271 81.064132 238.991281 81.061481 C 241.266147 81.064006 243.559232 80.337126 245.864706 78.890925 C 247.818051 77.658139 249.579357 76.40847 251.143742 75.136403 C 252.713326 73.864652 253.705461 73.079615 254.11983 72.786493 C 254.534515 72.488172 254.851031 72.345643 255.065127 72.342995 C 255.759088 72.343408 256.108401 73.121228 256.107867 74.67614 C 256.10765 76.225853 256.013927 77.25331 255.827332 77.748115 C 255.640736 78.242919 255.102811 78.852048 254.218757 79.575817 C 248.488087 84.236913 243.060692 86.568363 237.947284 86.565597 C 235.213033 86.566474 233.028489 86.193745 231.399167 85.442527 C 228.398394 84.075768 226.897338 81.986115 226.896 79.173567 C 226.896046 75.479273 229.456136 72.676221 234.570441 70.774495 C 233.554376 70.321428 232.895787 69.738755 232.605069 69.02711 C 232.308837 68.320347 232.15902 67.178955 232.160185 65.613645 C 232.161349 64.048336 232.888469 62.386241 234.351939 60.627994 C 235.809896 58.87463 237.598483 57.433554 239.712187 56.309651 C 244.427062 53.767944 248.637003 52.49483 252.331298 52.494876 C 253.213045 52.49626 254.113352 52.707489 255.02119 53.138328 C 255.934543 53.564285 256.388486 54.165833 256.38822 54.943289 Z M 275.836081 78.812264 C 275.832292 79.991287 276.636762 80.577603 278.243662 80.581294 C 279.104614 80.581415 280.179564 80.151011 281.478595 79.295913 C 282.777941 78.435616 283.951425 77.49984 284.994162 76.483071 C 287.781102 73.725108 289.362517 72.344498 289.738406 72.341243 C 290.432366 72.341655 290.78338 73.349167 290.781365 75.35795 C 290.779351 77.366732 290.153097 78.742749 288.891575 79.495767 C 285.060366 82.952113 282.104636 85.052799 280.01367 85.802392 C 278.836008 86.205685 277.535811 86.392816 276.113078 86.363787 C 274.695228 86.340272 273.287387 85.722521 271.894437 84.516048 C 270.501171 83.314774 269.807574 81.848144 269.808447 80.115843 C 269.809005 78.38874 270.262047 76.428228 271.17309 74.229424 C 272.083817 72.035818 273.017501 70.151465 273.968312 68.586446 C 274.919123 67.021427 276.089108 65.19839 277.483148 63.122849 C 278.87199 61.046992 279.613394 59.751021 279.691132 59.244386 L 279.612689 59.161352 C 278.725889 59.243148 276.538213 60.983492 273.044146 64.387266 C 269.54488 67.790725 266.656929 70.75127 264.380291 73.2689 C 262.103654 75.786529 259.384371 79.148665 256.227956 83.350423 C 255.343999 84.502068 254.620183 85.079033 254.056507 85.081317 C 253.493148 85.078402 252.736827 84.90201 251.788492 84.536543 C 250.834642 84.17596 250.250366 83.916096 250.035978 83.751752 C 249.826473 83.592923 249.715914 83.3514 249.714384 83.033013 C 249.718368 82.709743 249.810269 82.313545 250.000484 81.84505 C 250.185501 81.376239 250.365465 80.990609 250.540692 80.682959 C 250.716234 80.370111 251.000659 79.896903 251.404995 79.25357 C 251.804132 78.60992 252.601629 77.249523 253.797169 75.177578 C 254.987827 73.100118 256.814772 69.996851 259.277688 65.872978 C 261.745804 61.74942 263.217412 59.255938 263.697397 58.398047 C 264.717711 56.633751 265.547178 55.348347 266.190996 54.542152 C 267.394967 53.018602 269.429378 52.255137 272.299428 52.252074 C 272.941085 52.254527 273.261148 52.654879 273.264501 53.458644 C 273.261174 54.715964 272.09962 57.087397 269.764242 60.571994 L 268.081841 63.099632 C 272.714531 57.95962 276.622117 54.706196 279.8098 53.339675 C 281.363861 52.667043 282.766794 52.334832 284.008834 52.332013 C 285.255756 52.334709 286.247892 52.66631 286.984609 53.337216 C 287.721325 54.008121 288.088445 54.750497 288.090851 55.569859 C 288.088374 56.383706 287.809707 57.363404 287.244769 58.503121 C 286.685345 59.637955 286.112075 60.657153 285.53567 61.556148 C 284.959581 62.449945 284.207173 63.583492 283.268362 64.950958 C 282.329552 66.318424 281.820123 67.059732 281.739762 67.180081 C 281.6594 67.30043 281.452033 67.621781 281.117661 68.144134 C 280.78329 68.666487 280.535742 69.048012 280.375019 69.288709 C 280.214295 69.529407 279.948624 69.951575 279.572809 70.554897 C 279.196993 71.15822 278.895077 71.661673 278.667377 72.060057 C 278.439361 72.463641 278.158872 72.95796 277.825594 73.548212 C 277.487117 74.138149 277.221277 74.649011 277.017991 75.074969 C 276.819589 75.506441 276.608578 75.973673 276.395041 76.482495 C 276.019809 77.4198 275.831756 78.196285 275.836081 78.812264 Z M 314.644224 33.248229 L 316.294705 33.651131 C 316.534795 33.650062 316.746827 33.767301 316.935682 34.008362 C 317.124538 34.249424 317.214933 34.479286 317.217582 34.693382 C 317.215031 34.907163 316.934688 35.484977 316.371669 36.421311 C 315.80865 37.357646 315.149041 38.423778 314.382761 39.61388 C 313.621364 40.809496 313.211513 41.457712 313.158092 41.564043 C 315.249763 41.404119 316.726232 41.321618 317.597581 41.322371 C 318.468931 41.323123 319.065208 41.385435 319.386729 41.504107 C 319.70825 41.622779 320.074009 41.958074 320.489205 42.510307 C 320.904716 43.057342 321.286533 43.471881 321.634655 43.753925 C 321.982777 44.035969 322.16058 44.458987 322.157665 45.022346 C 322.160265 45.580823 321.818338 46.055756 321.131885 46.447145 C 320.450946 46.83365 319.721664 47.071117 318.94467 47.149148 C 312.72903 47.768193 309.30235 48.087044 308.658799 48.115783 C 306.489805 51.438296 303.456922 56.612876 299.559833 63.644723 C 295.657546 70.676253 293.590172 75.074616 293.346998 76.844377 C 293.240862 77.646709 293.190672 78.30112 293.190916 78.812493 C 293.190139 79.856032 293.737514 80.379769 294.838556 80.378821 C 295.934399 80.377557 297.154914 79.955996 298.494904 79.113821 C 299.829694 78.271331 301.064931 77.349743 302.189585 76.358821 C 305.190767 73.681706 306.795649 72.344266 307.009745 72.341617 C 307.708904 72.342346 308.053116 73.547726 308.057977 75.958707 C 308.056374 77.273529 307.452519 78.452626 306.24641 79.495996 C 303.542867 81.825937 301.265549 83.581707 299.414771 84.758108 C 297.568876 85.940023 295.722591 86.527071 293.870087 86.529331 C 293.46852 86.525809 293.095158 86.487475 292.745117 86.408813 C 290.604373 86.00222 289.028933 85.222967 288.024942 84.055776 C 287.020951 82.888584 286.526655 81.319267 286.537804 79.331911 C 286.553836 77.35007 287.143212 74.949098 288.306248 72.123795 C 289.474482 69.298808 290.940964 66.288439 292.705063 63.103086 C 295.598527 57.904383 298.493206 53.029266 301.383902 48.477418 L 299.858579 48.676964 C 296.75359 49.025793 294.942968 49.197571 294.436794 49.198131 L 294.071618 49.196819 C 293.294162 49.196552 292.54666 49.046785 291.824543 48.736804 C 291.097228 48.426508 290.73951 48.04474 290.735793 47.590554 C 290.737275 47.136684 290.93111 46.694498 291.322498 46.264314 C 291.708371 45.839012 291.942679 45.503644 292.025106 45.263408 C 292.212503 44.669511 292.914747 44.018185 294.132784 43.293833 C 295.350821 42.569481 296.271534 42.187105 296.884525 42.146073 C 297.502714 42.105357 298.099477 42.073776 298.67513 42.04613 C 299.250782 42.018484 299.894018 41.994943 300.60027 41.964794 C 301.311406 41.940161 301.855865 41.91062 302.227819 41.886253 L 305.843209 41.724968 C 308.093658 38.350006 309.644778 36.179648 310.485857 35.218462 C 311.332451 34.252392 311.818534 33.723601 311.954818 33.627522 C 312.085589 33.536325 312.354515 33.490046 312.756398 33.488369 Z M 331.962223 54.384072 C 332.765988 54.380719 333.589237 54.743805 334.432286 55.468131 C 335.275334 56.192457 335.69896 57.293085 335.697333 58.780097 C 335.695707 60.26711 335.17666 62.197523 334.130109 64.565505 C 333.088442 66.939003 331.653079 69.351199 329.829219 71.802411 C 328.010557 74.253939 326.008069 76.553415 323.826321 78.711554 C 321.639374 80.869377 319.283127 82.636006 316.752066 84.016325 C 314.221005 85.396643 311.924931 86.086816 309.863846 86.086842 C 307.797561 86.086552 306.146642 85.433163 304.900059 84.13644 C 303.653791 82.834519 303.033025 81.027929 303.032877 78.711158 C 303.03273 76.394386 303.600703 73.830357 304.736798 71.019072 C 305.878407 68.202903 307.344185 65.719503 309.139647 63.563989 C 310.935108 61.408474 312.8739 59.470383 314.966104 57.755547 C 319.332638 54.248234 323.159669 52.492681 326.45728 52.494719 C 327.928696 52.495399 329.03914 52.855059 329.793493 53.579215 C 330.060646 53.819815 330.193579 54.036607 330.192923 54.219195 L 330.193676 54.464484 C 330.567525 54.408925 331.158773 54.382226 331.962223 54.384072 Z M 327.901688 59.725815 L 327.620008 59.724357 C 326.685958 59.725014 326.215956 59.044221 326.215518 57.677096 C 324.261469 58.320212 322.210466 59.442706 320.067392 61.050093 C 317.924318 62.65748 316.008532 64.560443 314.320033 66.75898 C 310.891048 71.152898 309.152555 74.8616 309.09904 77.889969 C 309.096782 79.387379 309.646174 80.13561 310.7469 80.13986 C 311.842743 80.138596 313.478259 79.413515 315.647934 77.9695 C 317.817925 76.520286 319.967679 74.459344 322.097512 71.781476 C 324.227345 69.103609 325.819133 66.779183 326.878073 64.808516 C 327.937013 62.837849 328.466847 61.502936 328.463008 60.793064 C 328.464368 60.083508 328.277261 59.727758 327.901688 59.725815 Z M 327.901688 59.725815 " stroke="#101010" stroke-width="4.114675" stroke-opacity="1" stroke-miterlimit="4"/><g fill="#cb6ce6" fill-opacity="1"><g transform="translate(118.252085, 110.025076)"><g><path d="M 26.828125 -44.53125 L 28.984375 -45.15625 C 29.546875 -45.1875 30.003906 -45.085938 30.359375 -44.859375 C 30.722656 -44.640625 30.910156 -44.425781 30.921875 -44.21875 C 30.929688 -44.007812 30.894531 -43.703125 30.8125 -43.296875 C 30.738281 -42.890625 30.164062 -38.925781 29.09375 -31.40625 C 28.019531 -23.894531 27.25 -18.289062 26.78125 -14.59375 C 29.90625 -19.445312 33.535156 -25.398438 37.671875 -32.453125 C 41.816406 -39.503906 44.203125 -44.171875 44.828125 -46.453125 C 45.023438 -47.160156 45.300781 -47.71875 45.65625 -48.125 C 46.007812 -48.53125 46.332031 -48.773438 46.625 -48.859375 C 46.925781 -48.953125 47.382812 -49.015625 48 -49.046875 C 48.625 -49.085938 49.367188 -49 50.234375 -48.78125 C 51.109375 -48.5625 51.566406 -48.140625 51.609375 -47.515625 C 51.679688 -46.328125 50.132812 -42.804688 46.96875 -36.953125 C 43.800781 -31.109375 40.15625 -24.882812 36.03125 -18.28125 C 31.914062 -11.675781 28.457031 -6.4375 25.65625 -2.5625 C 25.15625 -1.863281 24.515625 -1.488281 23.734375 -1.4375 C 22.960938 -1.394531 22.144531 -1.484375 21.28125 -1.703125 C 20.425781 -1.921875 19.976562 -2.375 19.9375 -3.0625 C 19.800781 -5.257812 21.085938 -15.96875 23.796875 -35.1875 C 20.753906 -30.707031 17.09375 -24.492188 12.8125 -16.546875 C 8.363281 -8.328125 5.875 -3.242188 5.34375 -1.296875 C 5.050781 -0.128906 4.6875 0.5625 4.25 0.78125 C 3.9375 0.9375 3.601562 1.023438 3.25 1.046875 L 0.875 1.453125 C 0.414062 1.484375 -0.015625 1.378906 -0.421875 1.140625 C -0.828125 0.898438 -1.039062 0.640625 -1.0625 0.359375 C -1.113281 -0.441406 -0.15625 -2.898438 1.8125 -7.015625 C 3.789062 -11.140625 6.113281 -15.632812 8.78125 -20.5 C 11.457031 -25.363281 14.273438 -30.109375 17.234375 -34.734375 C 20.203125 -39.367188 22.523438 -42.5 24.203125 -44.125 C 24.535156 -44.46875 24.9375 -44.65625 25.40625 -44.6875 Z M 26.828125 -44.53125 "/></g></g></g><g fill="#cb6ce6" fill-opacity="1"><g transform="translate(158.103913, 107.604203)"><g><path d="M 23.421875 -24.359375 C 24.953125 -24.453125 25.75 -23.976562 25.8125 -22.9375 C 25.84375 -22.382812 25.738281 -21.96875 25.5 -21.6875 C 25.257812 -21.40625 24.753906 -20.5 23.984375 -18.96875 C 23.222656 -17.445312 22.394531 -15.503906 21.5 -13.140625 C 20.613281 -10.785156 20.066406 -8.789062 19.859375 -7.15625 C 19.804688 -6.945312 19.789062 -6.660156 19.8125 -6.296875 C 19.882812 -5.203125 20.21875 -4.671875 20.8125 -4.703125 C 21.414062 -4.742188 22.109375 -5.070312 22.890625 -5.6875 C 23.679688 -6.3125 24.378906 -6.96875 24.984375 -7.65625 C 25.585938 -8.34375 26.171875 -9.046875 26.734375 -9.765625 C 27.304688 -10.484375 27.648438 -10.898438 27.765625 -11.015625 C 27.878906 -11.128906 28.0625 -11.191406 28.3125 -11.203125 C 28.6875 -11.222656 28.929688 -10.941406 29.046875 -10.359375 C 29.160156 -9.785156 29.234375 -9.1875 29.265625 -8.5625 C 29.304688 -7.9375 29.28125 -7.503906 29.1875 -7.265625 C 28.664062 -6.085938 27.460938 -4.632812 25.578125 -2.90625 C 23.703125 -1.175781 21.957031 -0.257812 20.34375 -0.15625 C 18.738281 -0.0625 17.523438 -0.488281 16.703125 -1.4375 C 15.878906 -2.382812 15.429688 -3.453125 15.359375 -4.640625 C 15.285156 -5.828125 15.421875 -6.882812 15.765625 -7.8125 C 14.234375 -5.550781 12.4375 -3.597656 10.375 -1.953125 C 8.3125 -0.316406 6.597656 0.539062 5.234375 0.625 C 3.878906 0.707031 2.742188 0.363281 1.828125 -0.40625 C 0.660156 -1.375 0.0234375 -2.765625 -0.078125 -4.578125 C -0.191406 -6.390625 0.0976562 -8.234375 0.796875 -10.109375 C 1.492188 -11.992188 2.457031 -13.734375 3.6875 -15.328125 C 4.914062 -16.929688 6.285156 -18.40625 7.796875 -19.75 C 10.960938 -22.539062 13.953125 -24.023438 16.765625 -24.203125 C 17.847656 -24.265625 18.738281 -24.132812 19.4375 -23.8125 C 20.132812 -23.5 20.597656 -23.078125 20.828125 -22.546875 C 21.253906 -23.296875 21.628906 -23.773438 21.953125 -23.984375 C 22.273438 -24.203125 22.765625 -24.328125 23.421875 -24.359375 Z M 19.640625 -20.796875 C 16.203125 -20.585938 12.765625 -18.460938 9.328125 -14.421875 C 8.109375 -12.984375 7.003906 -11.273438 6.015625 -9.296875 C 5.035156 -7.328125 4.566406 -5.992188 4.609375 -5.296875 C 4.660156 -4.597656 4.890625 -4.265625 5.296875 -4.296875 C 5.859375 -4.328125 7.351562 -5.523438 9.78125 -7.890625 C 12.21875 -10.265625 13.828125 -12 14.609375 -13.09375 C 15.453125 -14.300781 17.128906 -16.867188 19.640625 -20.796875 Z M 19.640625 -20.796875 "/></g></g></g><g fill="#cb6ce6" fill-opacity="1"><g transform="translate(183.188007, 106.080423)"><g><path d="M 4.8125 -6.328125 L 4.796875 -5.84375 C 4.828125 -5.34375 5.046875 -4.921875 5.453125 -4.578125 C 5.859375 -4.242188 6.222656 -4.085938 6.546875 -4.109375 C 8.953125 -4.253906 11.054688 -4.742188 12.859375 -5.578125 C 14.671875 -6.410156 15.554688 -7.191406 15.515625 -7.921875 C 15.492188 -8.253906 15.140625 -8.523438 14.453125 -8.734375 C 13.765625 -8.953125 12.613281 -9.195312 11 -9.46875 C 9.382812 -9.75 8.207031 -9.96875 7.46875 -10.125 C 6.726562 -10.289062 6.140625 -10.453125 5.703125 -10.609375 C 5.273438 -10.765625 4.832031 -10.992188 4.375 -11.296875 C 3.394531 -11.898438 2.863281 -12.851562 2.78125 -14.15625 C 2.707031 -15.46875 3.113281 -16.800781 4 -18.15625 C 4.894531 -19.507812 6.046875 -20.691406 7.453125 -21.703125 C 8.867188 -22.722656 10.394531 -23.628906 12.03125 -24.421875 C 15.28125 -26.015625 18.035156 -26.878906 20.296875 -27.015625 C 22.523438 -27.148438 23.929688 -26.753906 24.515625 -25.828125 C 24.703125 -25.492188 24.804688 -25.113281 24.828125 -24.6875 L 24.84375 -24.484375 C 24.90625 -23.421875 24.726562 -22.578125 24.3125 -21.953125 C 23.894531 -21.328125 23.210938 -20.738281 22.265625 -20.1875 C 21.328125 -19.644531 20.570312 -19.359375 20 -19.328125 C 19.4375 -19.296875 19.078125 -19.316406 18.921875 -19.390625 C 18.765625 -19.460938 18.628906 -19.5625 18.515625 -19.6875 C 18.410156 -19.8125 18.28125 -19.894531 18.125 -19.9375 C 17.976562 -19.988281 17.894531 -20.132812 17.875 -20.375 C 17.863281 -20.625 17.945312 -20.878906 18.125 -21.140625 C 18.3125 -21.398438 18.4375 -21.675781 18.5 -21.96875 C 17.1875 -21.820312 15.820312 -21.425781 14.40625 -20.78125 C 12.988281 -20.144531 11.785156 -19.453125 10.796875 -18.703125 C 9.804688 -17.960938 8.988281 -17.257812 8.34375 -16.59375 C 7.695312 -15.925781 7.382812 -15.445312 7.40625 -15.15625 C 7.425781 -14.863281 7.90625 -14.660156 8.84375 -14.546875 C 13.039062 -13.972656 15.8125 -13.425781 17.15625 -12.90625 C 18.5 -12.382812 19.4375 -11.757812 19.96875 -11.03125 C 20.507812 -10.300781 20.800781 -9.625 20.84375 -9 C 20.925781 -7.707031 20.492188 -6.457031 19.546875 -5.25 C 18.597656 -4.050781 17.390625 -3.046875 15.921875 -2.234375 C 12.796875 -0.453125 10.035156 0.507812 7.640625 0.65625 C 5.242188 0.800781 3.566406 0.535156 2.609375 -0.140625 C 1.648438 -0.816406 1.140625 -1.65625 1.078125 -2.65625 C 1.015625 -3.664062 1.210938 -4.609375 1.671875 -5.484375 C 2.128906 -6.367188 2.757812 -6.832031 3.5625 -6.875 C 4.363281 -6.925781 4.78125 -6.742188 4.8125 -6.328125 Z M 4.8125 -6.328125 "/></g></g></g><g fill="#cb6ce6" fill-opacity="1"><g transform="translate(205.835877, 104.704636)"><g><path d="M 21.03125 -7.96875 C 22.019531 -8.695312 22.65625 -9.195312 22.9375 -9.46875 C 23.21875 -9.738281 23.550781 -10.054688 23.9375 -10.421875 C 24.320312 -10.796875 24.644531 -10.988281 24.90625 -11 C 25.300781 -11.019531 25.523438 -10.570312 25.578125 -9.65625 C 25.640625 -8.738281 25.253906 -7.726562 24.421875 -6.625 C 23.597656 -5.53125 22.546875 -4.578125 21.265625 -3.765625 C 19.992188 -2.953125 18.617188 -2.226562 17.140625 -1.59375 C 14.210938 -0.300781 11.703125 0.40625 9.609375 0.53125 C 7.515625 0.65625 5.582031 0.0820312 3.8125 -1.1875 C 2.050781 -2.457031 1.101562 -4.195312 0.96875 -6.40625 C 0.832031 -8.625 1.25 -10.875 2.21875 -13.15625 C 3.1875 -15.4375 4.488281 -17.460938 6.125 -19.234375 C 7.757812 -21.015625 9.691406 -22.5 11.921875 -23.6875 C 14.148438 -24.875 16.390625 -25.535156 18.640625 -25.671875 C 19.710938 -25.742188 20.695312 -25.492188 21.59375 -24.921875 C 22.5 -24.347656 22.984375 -23.519531 23.046875 -22.4375 C 23.117188 -21.363281 22.664062 -20.035156 21.6875 -18.453125 C 20.707031 -16.867188 19.664062 -16.046875 18.5625 -15.984375 C 17.269531 -15.898438 16.585938 -16.472656 16.515625 -17.703125 C 16.492188 -18.015625 16.757812 -18.601562 17.3125 -19.46875 C 17.875 -20.332031 18.144531 -20.910156 18.125 -21.203125 C 18.101562 -21.492188 17.984375 -21.632812 17.765625 -21.625 C 16.660156 -21.550781 15.5 -21.09375 14.28125 -20.25 C 13.0625 -19.414062 11.960938 -18.546875 10.984375 -17.640625 C 10.003906 -16.734375 9.082031 -15.726562 8.21875 -14.625 C 6.351562 -12.25 5.5 -9.832031 5.65625 -7.375 C 5.707031 -6.394531 6.070312 -5.566406 6.75 -4.890625 C 7.425781 -4.222656 8.507812 -3.929688 10 -4.015625 C 11.5 -4.109375 12.988281 -4.375 14.46875 -4.8125 C 15.957031 -5.25 17.175781 -5.703125 18.125 -6.171875 C 19.070312 -6.648438 20.039062 -7.25 21.03125 -7.96875 Z M 21.03125 -7.96875 "/></g></g></g><g fill="#cb6ce6" fill-opacity="1"><g transform="translate(228.303285, 103.339812)"><g><path d="M 19.4375 -34.328125 C 19.5 -33.179688 19.035156 -32 18.046875 -30.78125 C 17.066406 -29.570312 16 -28.929688 14.84375 -28.859375 C 13.6875 -28.796875 13.070312 -29.363281 13 -30.5625 C 12.925781 -31.757812 13.363281 -32.9375 14.3125 -34.09375 C 15.257812 -35.25 16.34375 -35.863281 17.5625 -35.9375 C 18.101562 -35.976562 18.539062 -35.851562 18.875 -35.5625 C 19.207031 -35.28125 19.394531 -34.867188 19.4375 -34.328125 Z M 16.171875 -7.765625 C 16.203125 -7.160156 16.164062 -6.726562 16.0625 -6.46875 C 15.195312 -4.40625 13.726562 -2.691406 11.65625 -1.328125 C 9.59375 0.0351562 7.769531 0.765625 6.1875 0.859375 C 4.601562 0.960938 3.203125 0.519531 1.984375 -0.46875 C 0.773438 -1.46875 0.140625 -2.519531 0.078125 -3.625 C 0.015625 -4.726562 0.46875 -6.367188 1.4375 -8.546875 C 2.414062 -10.722656 3.398438 -12.734375 4.390625 -14.578125 C 5.390625 -16.429688 5.882812 -17.429688 5.875 -17.578125 C 5.863281 -17.734375 5.640625 -18.019531 5.203125 -18.4375 C 4.765625 -18.851562 4.539062 -19.164062 4.53125 -19.375 C 4.519531 -19.582031 4.898438 -20.15625 5.671875 -21.09375 C 6.453125 -22.039062 7.410156 -22.988281 8.546875 -23.9375 C 9.691406 -24.882812 10.578125 -25.375 11.203125 -25.40625 C 11.835938 -25.445312 12.421875 -25.203125 12.953125 -24.671875 C 13.492188 -24.140625 13.773438 -23.640625 13.796875 -23.171875 C 13.828125 -22.710938 11.707031 -18.226562 7.4375 -9.71875 C 7.382812 -9.601562 7.234375 -9.328125 6.984375 -8.890625 C 6.742188 -8.460938 6.554688 -8.109375 6.421875 -7.828125 C 6.285156 -7.546875 6.128906 -7.210938 5.953125 -6.828125 C 5.597656 -5.992188 5.4375 -5.304688 5.46875 -4.765625 C 5.507812 -4.085938 5.992188 -3.773438 6.921875 -3.828125 C 7.847656 -3.890625 8.785156 -4.265625 9.734375 -4.953125 C 10.691406 -5.640625 11.507812 -6.390625 12.1875 -7.203125 C 13.945312 -9.347656 14.957031 -10.425781 15.21875 -10.4375 C 15.738281 -10.46875 16.054688 -9.578125 16.171875 -7.765625 Z M 16.171875 -7.765625 "/></g></g></g><g fill="#cb6ce6" fill-opacity="1"><g transform="translate(240.785178, 102.581576)"><g><path d="M 1.890625 0.078125 L 0.390625 0.09375 L -0.15625 0.140625 C -0.351562 0.0859375 -0.570312 -0.0195312 -0.8125 -0.1875 C -1.050781 -0.363281 -1.234375 -0.484375 -1.359375 -0.546875 C -1.484375 -0.617188 -1.550781 -0.757812 -1.5625 -0.96875 C -1.570312 -1.1875 -1.515625 -1.5625 -1.390625 -2.09375 C 1.984375 -10.925781 5.34375 -18.03125 8.6875 -23.40625 C 9.0625 -24 9.679688 -24.46875 10.546875 -24.8125 C 11.421875 -25.15625 12.28125 -25.351562 13.125 -25.40625 C 13.632812 -25.4375 13.910156 -25.0625 13.953125 -24.28125 C 13.972656 -24.050781 13.910156 -23.742188 13.765625 -23.359375 C 13.628906 -22.984375 13.265625 -22.351562 12.671875 -21.46875 C 12.078125 -20.59375 11.375 -19.585938 10.5625 -18.453125 C 9.75 -17.316406 9.285156 -16.660156 9.171875 -16.484375 C 11.742188 -19.503906 14.09375 -21.773438 16.21875 -23.296875 C 18.351562 -24.828125 19.914062 -25.625 20.90625 -25.6875 C 21.894531 -25.75 22.675781 -25.507812 23.25 -24.96875 C 23.820312 -24.425781 24.128906 -23.832031 24.171875 -23.1875 C 24.210938 -22.539062 24.195312 -22 24.125 -21.5625 C 24.0625 -21.125 23.921875 -20.660156 23.703125 -20.171875 C 23.492188 -19.679688 23.3125 -19.265625 23.15625 -18.921875 C 23.007812 -18.585938 22.75 -18.144531 22.375 -17.59375 C 22.007812 -17.039062 21.757812 -16.65625 21.625 -16.4375 C 21.488281 -16.226562 21.203125 -15.828125 20.765625 -15.234375 C 20.328125 -14.640625 20.097656 -14.3125 20.078125 -14.25 C 20.585938 -14.84375 21.304688 -15.722656 22.234375 -16.890625 C 23.171875 -18.054688 23.96875 -19.03125 24.625 -19.8125 C 25.28125 -20.601562 26.097656 -21.492188 27.078125 -22.484375 C 28.054688 -23.472656 28.976562 -24.285156 29.84375 -24.921875 C 31.925781 -26.429688 34.082031 -27.253906 36.3125 -27.390625 C 37.070312 -27.441406 37.726562 -27.238281 38.28125 -26.78125 C 38.832031 -26.332031 39.128906 -25.769531 39.171875 -25.09375 C 39.210938 -24.425781 38.492188 -22.773438 37.015625 -20.140625 C 35.546875 -17.503906 34.082031 -14.859375 32.625 -12.203125 C 31.164062 -9.546875 30.457031 -7.882812 30.5 -7.21875 C 30.5625 -6.3125 30.769531 -5.78125 31.125 -5.625 C 31.476562 -5.476562 31.890625 -5.4375 32.359375 -5.5 C 32.835938 -5.570312 33.492188 -5.921875 34.328125 -6.546875 C 35.171875 -7.179688 35.914062 -7.832031 36.5625 -8.5 C 37.601562 -9.570312 38.5625 -10.601562 39.4375 -11.59375 C 39.625 -11.800781 39.84375 -11.910156 40.09375 -11.921875 C 40.46875 -11.941406 40.710938 -11.660156 40.828125 -11.078125 C 40.953125 -10.503906 41.03125 -9.90625 41.0625 -9.28125 C 41.101562 -8.65625 41.070312 -8.222656 40.96875 -7.984375 C 40.445312 -6.828125 39.242188 -5.375 37.359375 -3.625 C 35.472656 -1.882812 33.617188 -0.957031 31.796875 -0.84375 C 31.578125 -0.832031 31.414062 -0.828125 31.3125 -0.828125 C 29.238281 -0.910156 27.773438 -1.394531 26.921875 -2.28125 C 26.078125 -3.164062 25.613281 -4.25 25.53125 -5.53125 C 25.457031 -6.8125 25.800781 -8.390625 26.5625 -10.265625 C 27.332031 -12.148438 28.1875 -13.867188 29.125 -15.421875 C 30.070312 -16.972656 30.945312 -18.367188 31.75 -19.609375 C 32.5625 -20.859375 32.960938 -21.53125 32.953125 -21.625 C 32.941406 -21.726562 32.859375 -21.773438 32.703125 -21.765625 C 32.078125 -21.722656 30.75 -20.632812 28.71875 -18.5 C 25.269531 -14.851562 22.3125 -11.351562 19.84375 -8 C 19.195312 -7.113281 17.660156 -4.875 15.234375 -1.28125 C 14.953125 -0.875 14.484375 -0.648438 13.828125 -0.609375 C 13.179688 -0.566406 12.5 -0.648438 11.78125 -0.859375 C 11.070312 -1.066406 10.707031 -1.367188 10.6875 -1.765625 C 10.664062 -1.972656 12.082031 -4.882812 14.9375 -10.5 C 17.800781 -16.113281 19.21875 -19.164062 19.1875 -19.65625 C 19.15625 -20.15625 18.84375 -20.382812 18.25 -20.34375 C 17.65625 -20.3125 16.492188 -19.351562 14.765625 -17.46875 C 9.984375 -12.3125 6.347656 -7.25 3.859375 -2.28125 C 3.691406 -1.988281 3.363281 -1.523438 2.875 -0.890625 C 2.394531 -0.253906 2.066406 0.0664062 1.890625 0.078125 Z M 1.890625 0.078125 "/></g></g></g><g fill="#cb6ce6" fill-opacity="1"><g transform="translate(278.260935, 100.305041)"><g><path d="M 21.203125 -23.875 C 21.273438 -22.550781 20.804688 -21.351562 19.796875 -20.28125 C 18.785156 -19.21875 17.597656 -18.644531 16.234375 -18.5625 C 15.796875 -18.539062 15.5 -18.628906 15.34375 -18.828125 C 15.1875 -19.023438 15.097656 -19.296875 15.078125 -19.640625 C 15.054688 -19.984375 15.078125 -20.3125 15.140625 -20.625 C 14.429688 -20.34375 13.648438 -19.925781 12.796875 -19.375 C 11.953125 -18.820312 10.914062 -18.015625 9.6875 -16.953125 C 8.457031 -15.890625 7.859375 -15.117188 7.890625 -14.640625 C 7.898438 -14.472656 8.140625 -14.40625 8.609375 -14.4375 C 9.085938 -14.46875 9.804688 -14.675781 10.765625 -15.0625 C 11.722656 -15.457031 12.394531 -15.664062 12.78125 -15.6875 C 13.175781 -15.71875 13.4375 -15.710938 13.5625 -15.671875 C 13.832031 -15.546875 14.132812 -15.253906 14.46875 -14.796875 C 14.800781 -14.347656 14.972656 -13.988281 14.984375 -13.71875 C 15.003906 -13.457031 14.765625 -13.085938 14.265625 -12.609375 C 13.765625 -12.140625 13.191406 -11.765625 12.546875 -11.484375 C 11.910156 -11.210938 11.484375 -11.015625 11.265625 -10.890625 C 7.171875 -8.265625 5.148438 -6.507812 5.203125 -5.625 C 5.304688 -4.070312 6.691406 -3.375 9.359375 -3.53125 C 11.066406 -3.632812 12.742188 -4.273438 14.390625 -5.453125 C 15.804688 -6.472656 17.070312 -7.492188 18.1875 -8.515625 C 19.3125 -9.535156 20.015625 -10.164062 20.296875 -10.40625 C 20.585938 -10.65625 20.816406 -10.785156 20.984375 -10.796875 C 21.503906 -10.828125 21.800781 -10.257812 21.875 -9.09375 C 21.945312 -7.925781 21.921875 -7.148438 21.796875 -6.765625 C 21.679688 -6.378906 21.3125 -5.898438 20.6875 -5.328125 C 16.613281 -1.578125 12.660156 0.410156 8.828125 0.640625 C 6.785156 0.765625 5.132812 0.582031 3.875 0.09375 C 1.5625 -0.789062 0.34375 -2.285156 0.21875 -4.390625 C 0.0507812 -7.160156 1.835938 -9.375 5.578125 -11.03125 C 4.796875 -11.332031 4.273438 -11.738281 4.015625 -12.25 C 3.765625 -12.757812 3.601562 -13.597656 3.53125 -14.765625 C 3.46875 -15.941406 3.941406 -17.222656 4.953125 -18.609375 C 5.960938 -19.992188 7.238281 -21.148438 8.78125 -22.078125 C 12.1875 -24.203125 15.273438 -25.347656 18.046875 -25.515625 C 18.703125 -25.554688 19.378906 -25.4375 20.078125 -25.15625 C 20.785156 -24.882812 21.160156 -24.457031 21.203125 -23.875 Z M 21.203125 -23.875 "/></g></g></g><g fill="#cb6ce6" fill-opacity="1"><g transform="translate(297.810889, 99.117443)"><g><path d="M 17.28125 -5.6875 C 17.332031 -4.8125 17.960938 -4.410156 19.171875 -4.484375 C 19.816406 -4.523438 20.601562 -4.894531 21.53125 -5.59375 C 22.46875 -6.289062 23.300781 -7.046875 24.03125 -7.859375 C 26 -10.054688 27.125 -11.164062 27.40625 -11.1875 C 27.925781 -11.21875 28.234375 -10.476562 28.328125 -8.96875 C 28.421875 -7.457031 28.007812 -6.394531 27.09375 -5.78125 C 24.375 -3.019531 22.253906 -1.304688 20.734375 -0.640625 C 19.867188 -0.285156 18.90625 -0.0859375 17.84375 -0.046875 C 16.78125 -0.00390625 15.695312 -0.40625 14.59375 -1.25 C 13.488281 -2.09375 12.894531 -3.160156 12.8125 -4.453125 C 12.738281 -5.742188 12.992188 -7.234375 13.578125 -8.921875 C 14.160156 -10.609375 14.769531 -12.054688 15.40625 -13.265625 C 16.050781 -14.484375 16.847656 -15.898438 17.796875 -17.515625 C 18.753906 -19.140625 19.253906 -20.144531 19.296875 -20.53125 L 19.234375 -20.578125 C 18.566406 -20.472656 17.003906 -19.066406 14.546875 -16.359375 C 12.085938 -13.660156 10.0625 -11.316406 8.46875 -9.328125 C 6.875 -7.335938 4.988281 -4.695312 2.8125 -1.40625 C 2.207031 -0.5 1.691406 -0.03125 1.265625 0 C 0.847656 0.0195312 0.273438 -0.0820312 -0.453125 -0.3125 C -1.179688 -0.539062 -1.628906 -0.707031 -1.796875 -0.8125 C -1.960938 -0.925781 -2.050781 -1.101562 -2.0625 -1.34375 C -2.082031 -1.59375 -2.03125 -1.894531 -1.90625 -2.25 C -1.789062 -2.613281 -1.675781 -2.914062 -1.5625 -3.15625 C -1.445312 -3.394531 -1.253906 -3.757812 -0.984375 -4.25 C -0.710938 -4.75 -0.179688 -5.800781 0.609375 -7.40625 C 1.410156 -9.019531 2.640625 -11.425781 4.296875 -14.625 C 5.953125 -17.832031 6.945312 -19.769531 7.28125 -20.4375 C 7.957031 -21.789062 8.515625 -22.785156 8.953125 -23.421875 C 9.796875 -24.617188 11.289062 -25.285156 13.4375 -25.421875 C 13.914062 -25.453125 14.171875 -25.164062 14.203125 -24.5625 C 14.265625 -23.613281 13.5 -21.789062 11.90625 -19.09375 L 10.765625 -17.109375 C 14.003906 -21.160156 16.785156 -23.773438 19.109375 -24.953125 C 20.234375 -25.523438 21.265625 -25.835938 22.203125 -25.890625 C 23.140625 -25.953125 23.898438 -25.75 24.484375 -25.28125 C 25.066406 -24.8125 25.375 -24.269531 25.40625 -23.65625 C 25.445312 -23.050781 25.28125 -22.304688 24.90625 -21.421875 C 24.539062 -20.546875 24.160156 -19.757812 23.765625 -19.0625 C 23.378906 -18.363281 22.863281 -17.476562 22.21875 -16.40625 C 21.582031 -15.34375 21.234375 -14.765625 21.171875 -14.671875 C 21.117188 -14.578125 20.976562 -14.328125 20.75 -13.921875 C 20.519531 -13.515625 20.351562 -13.21875 20.25 -13.03125 C 20.144531 -12.851562 19.96875 -12.53125 19.71875 -12.0625 C 19.46875 -11.59375 19.265625 -11.203125 19.109375 -10.890625 C 18.953125 -10.578125 18.757812 -10.191406 18.53125 -9.734375 C 18.3125 -9.273438 18.132812 -8.878906 18 -8.546875 C 17.875 -8.222656 17.738281 -7.863281 17.59375 -7.46875 C 17.351562 -6.738281 17.25 -6.144531 17.28125 -5.6875 Z M 17.28125 -5.6875 "/></g></g></g><g fill="#cb6ce6" fill-opacity="1"><g transform="translate(321.87237, 97.655783)"><g><path d="M 20.203125 -40.109375 L 21.46875 -39.890625 C 21.644531 -39.898438 21.804688 -39.816406 21.953125 -39.640625 C 22.109375 -39.472656 22.191406 -39.304688 22.203125 -39.140625 C 22.210938 -38.984375 22.023438 -38.539062 21.640625 -37.8125 C 21.265625 -37.082031 20.816406 -36.253906 20.296875 -35.328125 C 19.773438 -34.410156 19.5 -33.90625 19.46875 -33.8125 C 21.03125 -34.039062 22.132812 -34.171875 22.78125 -34.203125 C 23.4375 -34.242188 23.882812 -34.222656 24.125 -34.140625 C 24.375 -34.066406 24.664062 -33.832031 25 -33.4375 C 25.34375 -33.050781 25.648438 -32.757812 25.921875 -32.5625 C 26.191406 -32.375 26.335938 -32.070312 26.359375 -31.65625 C 26.390625 -31.238281 26.15625 -30.867188 25.65625 -30.546875 C 25.164062 -30.222656 24.632812 -30.007812 24.0625 -29.90625 C 19.4375 -29.15625 16.882812 -28.757812 16.40625 -28.71875 C 14.925781 -26.125 12.890625 -22.109375 10.296875 -16.671875 C 7.703125 -11.234375 6.347656 -7.847656 6.234375 -6.515625 C 6.203125 -5.898438 6.195312 -5.398438 6.21875 -5.015625 C 6.269531 -4.242188 6.707031 -3.882812 7.53125 -3.9375 C 8.351562 -3.988281 9.242188 -4.359375 10.203125 -5.046875 C 11.171875 -5.734375 12.050781 -6.472656 12.84375 -7.265625 C 14.96875 -9.421875 16.109375 -10.5 16.265625 -10.5 C 16.785156 -10.539062 17.101562 -9.65625 17.21875 -7.84375 C 17.269531 -6.851562 16.867188 -5.941406 16.015625 -5.109375 C 14.097656 -3.234375 12.472656 -1.8125 11.140625 -0.84375 C 9.804688 0.113281 8.445312 0.632812 7.0625 0.71875 C 6.757812 0.738281 6.476562 0.726562 6.21875 0.6875 C 4.601562 0.476562 3.390625 -0.0351562 2.578125 -0.859375 C 1.773438 -1.691406 1.332031 -2.847656 1.25 -4.328125 C 1.175781 -5.816406 1.507812 -7.644531 2.25 -9.8125 C 3 -11.976562 3.957031 -14.296875 5.125 -16.765625 C 7.070312 -20.773438 9.023438 -24.554688 10.984375 -28.109375 L 9.84375 -27.90625 C 7.53125 -27.488281 6.179688 -27.269531 5.796875 -27.25 L 5.53125 -27.234375 C 4.945312 -27.191406 4.375 -27.269531 3.8125 -27.46875 C 3.257812 -27.675781 2.972656 -27.945312 2.953125 -28.28125 C 2.929688 -28.625 3.054688 -28.96875 3.328125 -29.3125 C 3.597656 -29.65625 3.757812 -29.910156 3.8125 -30.078125 C 3.925781 -30.535156 4.421875 -31.0625 5.296875 -31.65625 C 6.179688 -32.25 6.851562 -32.578125 7.3125 -32.640625 C 7.769531 -32.703125 8.210938 -32.753906 8.640625 -32.796875 C 9.078125 -32.847656 9.5625 -32.898438 10.09375 -32.953125 C 10.625 -33.003906 11.03125 -33.050781 11.3125 -33.09375 L 14 -33.359375 C 15.53125 -35.992188 16.59375 -37.6875 17.1875 -38.4375 C 17.78125 -39.195312 18.125 -39.613281 18.21875 -39.6875 C 18.3125 -39.769531 18.503906 -39.820312 18.796875 -39.84375 Z M 20.203125 -40.109375 "/></g></g></g><g fill="#cb6ce6" fill-opacity="1"><g transform="translate(335.106184, 96.851871)"><g><path d="M 20.890625 -24.265625 C 21.492188 -24.304688 22.128906 -24.078125 22.796875 -23.578125 C 23.460938 -23.078125 23.828125 -22.269531 23.890625 -21.15625 C 23.960938 -20.039062 23.660156 -18.570312 22.984375 -16.75 C 22.304688 -14.925781 21.34375 -13.054688 20.09375 -11.140625 C 18.84375 -9.222656 17.445312 -7.40625 15.90625 -5.6875 C 14.363281 -3.976562 12.675781 -2.546875 10.84375 -1.390625 C 9.019531 -0.242188 7.335938 0.375 5.796875 0.46875 C 4.253906 0.5625 2.988281 0.148438 2 -0.765625 C 1.007812 -1.679688 0.460938 -3.003906 0.359375 -4.734375 C 0.253906 -6.472656 0.5625 -8.421875 1.28125 -10.578125 C 2 -12.734375 2.976562 -14.660156 4.21875 -16.359375 C 5.46875 -18.054688 6.835938 -19.597656 8.328125 -20.984375 C 11.429688 -23.796875 14.21875 -25.28125 16.6875 -25.4375 C 17.789062 -25.5 18.644531 -25.273438 19.25 -24.765625 C 19.457031 -24.597656 19.5625 -24.441406 19.5625 -24.296875 L 19.578125 -24.125 C 19.847656 -24.1875 20.285156 -24.234375 20.890625 -24.265625 Z M 18.09375 -20.09375 L 17.890625 -20.078125 C 17.179688 -20.035156 16.796875 -20.53125 16.734375 -21.5625 C 15.304688 -20.976562 13.828125 -20.035156 12.296875 -18.734375 C 10.765625 -17.441406 9.414062 -15.929688 8.25 -14.203125 C 5.882812 -10.753906 4.75 -7.894531 4.84375 -5.625 C 4.914062 -4.507812 5.363281 -3.976562 6.1875 -4.03125 C 7.007812 -4.082031 8.195312 -4.695312 9.75 -5.875 C 11.3125 -7.0625 12.828125 -8.703125 14.296875 -10.796875 C 15.773438 -12.890625 16.863281 -14.695312 17.5625 -16.21875 C 18.269531 -17.75 18.601562 -18.78125 18.5625 -19.3125 C 18.53125 -19.84375 18.375 -20.101562 18.09375 -20.09375 Z M 18.09375 -20.09375 "/></g></g></g></svg>